<svg width="106" height="118" viewBox="0 0 106 118" fill="none" xmlns="http://www.w3.org/2000/svg">
<g clip-path="url(#clip0_1143_4776)">
<path d="M60.0921 90.921C85.4463 90.921 106 70.5676 106 45.4605C106 20.3534 85.4463 0 60.0921 0C34.7379 0 14.1842 20.3534 14.1842 45.4605C14.1842 70.5676 34.7379 90.921 60.0921 90.921Z" fill="#F2F2F2"/>
<path d="M90.0922 20.3299H5.99528C5.81495 20.3261 5.67188 20.1782 5.67574 19.9997C5.67947 19.8265 5.82037 19.6869 5.99528 19.6832H90.0922C90.2726 19.687 90.4156 19.8349 90.4118 20.0135C90.408 20.1867 90.2671 20.3262 90.0922 20.3299Z" fill="#CACACA"/>
<path d="M61.4321 31.2268H38.1844C36.4383 31.2268 35.0227 32.6286 35.0227 34.3577V34.3577C35.0227 36.0869 36.4383 37.4886 38.1844 37.4886H61.4321C63.1783 37.4886 64.5938 36.0869 64.5938 34.3577C64.5938 32.6286 63.1783 31.2268 61.4321 31.2268Z" fill="white"/>
<path d="M23.1664 43.7504H76.4503C78.1965 43.7504 79.612 45.1521 79.612 46.8813C79.612 48.6104 78.1965 50.0122 76.4503 50.0122H23.1664C21.4202 50.0122 20.0046 48.6104 20.0046 46.8813C20.0046 45.1521 21.4202 43.7504 23.1664 43.7504Z" fill="white"/>
<path d="M23.1664 56.274H76.4503C78.1965 56.274 79.612 57.6758 79.612 59.405C79.612 61.1341 78.1965 62.5359 76.4503 62.5359H23.1664C21.4202 62.5359 20.0046 61.1341 20.0046 59.405C20.0046 57.6758 21.4202 56.274 23.1664 56.274Z" fill="white"/>
<path d="M16.5632 117.725L16.4378 117.712C12.183 117.278 8.33678 115.012 5.92082 111.517C5.25906 110.543 4.72378 109.49 4.3276 108.384L4.28952 108.278L4.40225 108.269C5.74822 108.162 7.13094 107.936 7.74519 107.828L3.78432 106.499L3.75983 106.383C3.52501 105.29 3.98506 104.166 4.92172 103.544C5.86092 102.892 7.10638 102.871 8.06732 103.491C8.49857 103.764 8.94963 104.034 9.3858 104.295C10.8847 105.193 12.4347 106.122 13.5967 107.392C15.3588 109.357 16.1312 112.004 15.6987 114.597L16.5632 117.725Z" fill="#F2F2F2"/>
<path d="M30.9607 115.774L32.9127 115.774L33.8416 108.317L30.9602 108.317L30.9607 115.774Z" fill="#A0616A"/>
<path d="M30.8919 117.791L36.8951 117.79V117.715C36.895 116.437 35.8489 115.401 34.5585 115.401L33.4618 114.578L31.4159 115.402L30.8918 115.402L30.8919 117.791Z" fill="#2F2E41"/>
<path d="M15.316 110.42L16.8775 111.58L22.1393 106.167L19.8345 104.455L15.316 110.42Z" fill="#A0616A"/>
<path d="M14.0388 111.992L18.8409 115.559L18.8865 115.499C19.6608 114.477 19.4518 113.027 18.4196 112.26L18.0416 110.949L15.9058 110.392L15.4866 110.081L14.0388 111.992Z" fill="#2F2E41"/>
<path d="M21.8053 80.7824C21.8053 80.7824 21.913 83.6933 22.049 86.0278C22.0712 86.4107 21.1655 86.8266 21.1889 87.2431C21.2045 87.5194 21.3747 87.788 21.3905 88.0762C21.4072 88.3802 21.1722 88.6494 21.1889 88.9639C21.2053 89.2711 21.4734 89.6235 21.4896 89.9379C21.6637 93.3223 22.2947 97.3738 21.6628 98.5064C21.3514 99.0646 17.382 106.798 17.382 106.798C17.382 106.798 19.5936 110.083 20.2255 108.988C21.0601 107.541 27.4924 100.775 27.4924 99.4826C27.4924 98.192 28.9805 88.5196 28.9805 88.5196L30.0181 94.2436L30.4939 95.3777L30.3444 96.0435L30.6519 96.942L30.6685 97.8313L30.9678 99.4826C30.9678 99.4826 30.0674 112.348 30.5745 112.706C31.0831 113.066 33.546 113.712 33.8366 113.066C34.1257 112.42 36.0075 99.639 36.0075 99.639C36.0075 99.639 36.3108 93.7821 36.6394 88.3381C36.6583 88.0221 36.8827 87.6404 36.9 87.3291C36.9206 86.9677 36.7784 86.4984 36.7973 86.148C36.8179 85.746 36.998 85.4628 37.0153 85.078C37.1496 82.1041 36.3958 78.4828 36.1557 78.1261C35.4306 77.0498 34.7782 76.1894 34.7782 76.1894C34.7782 76.1894 25.0118 73.0119 22.402 76.2407L21.8053 80.7824Z" fill="#2F2E41"/>
<path d="M31.5459 50.8484L27.6743 50.0817L25.8676 52.5098C22.4963 55.7924 22.4455 58.6895 23.0473 63.3333V69.8509L22.6118 74.2201C22.6118 74.2201 21.0698 77.414 22.6602 78.1576C24.2506 78.9012 34.6972 78.8378 35.6946 78.541C36.692 78.2441 35.8275 77.8797 35.5655 76.4963C35.0735 73.8976 35.4026 75.1511 35.4365 74.3237C35.9219 62.455 34.7912 57.5825 34.6764 56.3017L32.7074 52.7654L31.5459 50.8484Z" fill="#3F3D56"/>
<path d="M51.9517 60.4179C51.5482 61.175 50.6013 61.4648 49.8368 61.0653C49.7552 61.0227 49.6777 60.973 49.605 60.9169L41.2439 66.1741L41.268 63.3118L49.3902 58.6443C49.9687 58.002 50.9635 57.9457 51.6122 58.5186C52.1549 58.998 52.2953 59.7832 51.9517 60.4179Z" fill="#A0616A"/>
<path d="M28.4891 54.1631L27.5372 54.0633C26.6576 53.9729 25.7947 54.3459 25.2636 55.046C25.0601 55.3115 24.914 55.6156 24.8343 55.9394L24.8338 55.942C24.595 56.9166 24.9695 57.938 25.7841 58.5338L29.0718 60.9341C31.379 64.0213 35.7152 66.0695 40.8015 67.7335L48.7076 62.8712L45.9112 59.5174L40.4884 62.3954L32.4277 56.2164L32.423 56.2127L29.3551 54.2554L28.4891 54.1631Z" fill="#3F3D56"/>
<path d="M30.2377 48.9657C32.7312 48.9657 34.7526 46.9641 34.7526 44.4949C34.7526 42.0257 32.7312 40.024 30.2377 40.024C27.7443 40.024 25.7229 42.0257 25.7229 44.4949C25.7229 46.9641 27.7443 48.9657 30.2377 48.9657Z" fill="#A0616A"/>
<path d="M30.3421 48.9668C30.3057 48.968 30.2692 48.9688 30.2327 48.9698C30.2171 49.0098 30.2003 49.0496 30.1809 49.0885L30.3421 48.9668Z" fill="#2F2E41"/>
<path d="M31.5811 44.619C31.5881 44.6631 31.599 44.7064 31.6134 44.7487C31.6075 44.7044 31.5966 44.6609 31.5811 44.619Z" fill="#2F2E41"/>
<path d="M34.8102 40.2154C34.6244 40.7869 34.4585 40.062 33.8472 40.1924C33.1118 40.3492 32.256 40.2954 31.6537 39.849C30.7564 39.197 29.5935 39.0215 28.5408 39.3792C27.5103 39.7402 25.7839 39.9947 25.5154 41.044C25.4221 41.4087 25.385 41.8045 25.1588 42.1068C24.961 42.3711 24.6488 42.5217 24.3877 42.7251C23.5062 43.412 24.1799 45.3633 24.5971 46.3943C25.0144 47.4253 25.9714 48.1764 27.0236 48.5611C28.0417 48.9334 29.1467 48.999 30.2327 48.9698C30.4216 48.4846 30.34 47.9243 30.1841 47.4214C30.0154 46.8769 29.7656 46.3515 29.6951 45.7862C29.6246 45.221 29.7794 44.579 30.258 44.2631C30.6979 43.9729 31.4137 44.1497 31.5811 44.619C31.4835 44.0323 32.0837 43.4645 32.7026 43.3646C33.3671 43.2574 34.0316 43.495 34.6942 43.6132C35.3567 43.7315 35.1216 40.9692 34.8102 40.2154Z" fill="#2F2E41"/>
<path d="M60.0607 51.8906C60.4815 46.8548 56.7002 42.4345 51.6148 42.0177C46.5294 41.601 42.0656 45.3455 41.6448 50.3813C41.2239 55.4172 45.0052 59.8374 50.0906 60.2542C55.176 60.6709 59.6398 56.9264 60.0607 51.8906Z" fill="#6C63FF"/>
<path d="M53.2797 47.3238L50.8527 49.7271L48.4256 47.3238C48.0328 46.9347 47.3958 46.9347 47.0029 47.3238C46.61 47.7128 46.61 48.3436 47.0029 48.7326L49.4299 51.136L47.0029 53.5394C46.6104 53.9288 46.611 54.5596 47.0042 54.9483C47.397 55.3364 48.0329 55.3364 48.4256 54.9483L50.8527 52.5449L53.2797 54.9483C53.6729 55.3369 54.3099 55.3364 54.7024 54.9469C55.0944 54.558 55.0944 53.9283 54.7024 53.5394L52.2754 51.136L54.7024 48.7326C55.0953 48.3436 55.0953 47.7128 54.7024 47.3238C54.3096 46.9347 53.6726 46.9347 53.2797 47.3238Z" fill="white"/>
<path d="M47.2118 43.4458C47.4841 44.2583 47.0398 45.1356 46.2193 45.4053C46.1319 45.434 46.042 45.4551 45.9508 45.4682L43.9933 55.0823L41.9242 53.0835L44.146 44.0483C44.0784 43.1902 44.7262 42.4404 45.5927 42.3735C46.3178 42.3176 46.9871 42.7609 47.2118 43.4458Z" fill="#A0616A"/>
<path d="M26.4106 55.8815L25.6788 56.4925C25.0041 57.0585 24.6784 57.9334 24.8209 58.7976C24.8736 59.1268 24.994 59.4417 25.1748 59.7228L25.1763 59.725C25.7212 60.5704 26.7247 61.0098 27.7229 60.8403L31.7481 60.1527C35.595 60.6413 40.0895 58.9607 44.8233 56.4782L46.7536 47.4625L42.3737 47.1389L40.7166 53.0063L30.6335 54.4885L30.6276 54.4893L27.0773 55.3265L26.4106 55.8815Z" fill="#3F3D56"/>
<path d="M49.3305 117.945L0.214509 118C0.0956559 118 -0.000383822 117.904 1.15335e-06 117.786C0.000382514 117.669 0.0961963 117.574 0.214509 117.574L49.3305 117.519C49.4494 117.519 49.5454 117.615 49.545 117.733C49.5447 117.85 49.4489 117.945 49.3305 117.945Z" fill="#CACACA"/>
<path d="M10.2618 16.234C11.106 16.234 11.7903 15.5412 11.7903 14.6867C11.7903 13.8321 11.106 13.1394 10.2618 13.1394C9.41771 13.1394 8.7334 13.8321 8.7334 14.6867C8.7334 15.5412 9.41771 16.234 10.2618 16.234Z" fill="#3F3D56"/>
<path d="M15.5419 16.234C16.386 16.234 17.0703 15.5412 17.0703 14.6867C17.0703 13.8321 16.386 13.1394 15.5419 13.1394C14.6977 13.1394 14.0134 13.8321 14.0134 14.6867C14.0134 15.5412 14.6977 16.234 15.5419 16.234Z" fill="#3F3D56"/>
<path d="M20.822 16.234C21.6662 16.234 22.3505 15.5412 22.3505 14.6867C22.3505 13.8321 21.6662 13.1394 20.822 13.1394C19.9779 13.1394 19.2936 13.8321 19.2936 14.6867C19.2936 15.5412 19.9779 16.234 20.822 16.234Z" fill="#3F3D56"/>
<path d="M26.8427 15.9096C26.7957 15.9096 26.7489 15.8916 26.7135 15.8558L25.6822 14.8118C25.6134 14.7422 25.6134 14.6311 25.6822 14.5615L26.7135 13.5176C26.7835 13.447 26.898 13.4459 26.9691 13.5148C27.0405 13.5839 27.0417 13.6973 26.9719 13.7679L26.0642 14.6867L26.9719 15.6055C27.0417 15.6761 27.0405 15.7894 26.9691 15.8586C26.9339 15.8927 26.8883 15.9096 26.8427 15.9096Z" fill="#3F3D56"/>
<path d="M28.5758 15.9096C28.5301 15.9096 28.4845 15.8927 28.4494 15.8586C28.378 15.7895 28.3768 15.6762 28.4466 15.6055L29.3542 14.6867L28.4466 13.7679C28.3768 13.6973 28.378 13.584 28.4494 13.5148C28.5206 13.4456 28.6352 13.4469 28.705 13.5176L29.7362 14.5615C29.8049 14.6311 29.8049 14.7422 29.7362 14.8118L28.705 15.8558C28.6696 15.8916 28.6227 15.9096 28.5758 15.9096Z" fill="#3F3D56"/>
<path d="M82.5283 13.3185H80.6107C80.392 13.3185 80.2148 13.4939 80.2148 13.7104V15.6112C80.2148 15.8278 80.392 16.0032 80.6107 16.0032H82.5283C82.747 16.0032 82.9259 15.8278 82.9259 15.6112V13.7104C82.9259 13.4939 82.747 13.3185 82.5283 13.3185Z" fill="#3F3D56"/>
<path d="M77.8291 13.3185H75.9114C75.6927 13.3185 75.5156 13.4939 75.5156 13.7104V15.6112C75.5156 15.8278 75.6927 16.0032 75.9114 16.0032H77.8291C78.0478 16.0032 78.2267 15.8278 78.2267 15.6112V13.7104C78.2267 13.4939 78.0478 13.3185 77.8291 13.3185Z" fill="#3F3D56"/>
<path d="M86.9564 13.4081H85.0388C84.8201 13.4081 84.6429 13.5835 84.6429 13.8V15.7008C84.6429 15.9174 84.8201 16.0928 85.0388 16.0928H86.9564C87.1751 16.0928 87.354 15.9174 87.354 15.7008V13.8C87.354 13.5835 87.1751 13.4081 86.9564 13.4081Z" fill="#3F3D56"/>
<path d="M58.0522 14.1311H42.7237C42.4562 14.1311 42.2411 14.3459 42.2411 14.609C42.2411 14.8721 42.4562 15.0869 42.7237 15.0869H58.0522C58.3179 15.0869 58.5348 14.8721 58.5348 14.609C58.5348 14.3459 58.3179 14.1311 58.0522 14.1311Z" fill="#3F3D56"/>
</g>
<defs>
<clipPath id="clip0_1143_4776">
<rect width="106" height="118" fill="white"/>
</clipPath>
</defs>
</svg>
