<svg width="131" height="104" viewBox="0 0 131 104" fill="none" xmlns="http://www.w3.org/2000/svg">
<g clip-path="url(#clip0_1143_4744)">
<path d="M80.4473 92.3702L76.9512 95.6166L79.7297 90.9142C77.5406 86.9103 73.9605 83.45 73.9605 83.45C73.9605 83.45 66.533 90.6276 66.533 96.2697C66.533 101.912 69.8584 103.882 73.9605 103.882C78.0626 103.882 81.388 101.912 81.388 96.2697C81.388 95.0138 81.0195 93.682 80.4473 92.3702Z" fill="#F2F2F2"/>
<path d="M76.0522 95.7923V96.0704C76.0358 99.3031 75.4953 101.825 74.4347 103.601C74.4196 103.628 74.4033 103.652 74.3882 103.678L74.2695 103.605L74.1562 103.534C75.3328 101.616 75.7491 98.9052 75.7641 96.0856C75.7655 95.9947 75.7669 95.9025 75.7655 95.8102C75.7614 94.6166 75.6891 93.4091 75.5731 92.2361C75.5649 92.1453 75.5553 92.053 75.5458 91.9608C75.3847 90.4133 75.1526 88.9346 74.9151 87.6501C74.8988 87.5592 74.881 87.4684 74.8633 87.3789C74.4524 85.2064 74.0334 83.6327 73.9378 83.2844C73.9269 83.2417 73.9201 83.2183 73.9187 83.2128L74.0484 83.1756L74.0497 83.1743L74.1808 83.1371C74.1821 83.1426 74.2053 83.2211 74.2436 83.367C74.3896 83.9122 74.7691 85.3922 75.1417 87.3445C75.1581 87.4326 75.1758 87.5235 75.1922 87.6143C75.386 88.6565 75.5758 89.8213 75.7259 91.0439C75.7641 91.3509 75.7983 91.6538 75.8283 91.9525C75.8392 92.0448 75.8488 92.137 75.857 92.2279C75.9826 93.4959 76.0476 94.684 76.0522 95.7923Z" fill="white"/>
<path d="M75.1417 87.3446C75.0503 87.357 74.9574 87.3694 74.8632 87.379C74.6075 87.4055 74.3505 87.4189 74.0934 87.4189C72.9976 87.4204 71.9154 87.1739 70.9267 86.6975C70.8693 86.7705 70.812 86.8434 70.7533 86.9178C71.7935 87.4299 72.9359 87.6955 74.0934 87.6943C74.3679 87.6942 74.6422 87.6795 74.9151 87.6502C75.0079 87.6406 75.1007 87.6282 75.1922 87.6144C75.9471 87.5052 76.6812 87.281 77.3693 86.9494C77.3106 86.8737 77.2533 86.7994 77.1974 86.7264C76.5461 87.0334 75.8534 87.2417 75.1417 87.3446Z" fill="white"/>
<path d="M75.8283 91.9525C75.7341 91.958 75.6399 91.9608 75.5457 91.9608C75.5171 91.9622 75.487 91.9622 75.4584 91.9622C74.271 91.9622 73.1013 91.6726 72.0488 91.1181C70.9964 90.5636 70.0925 89.7607 69.4143 88.7777C69.3597 88.8589 69.3051 88.9402 69.2518 89.0228C69.9588 90.0174 70.8905 90.8277 71.9699 91.3868C73.0492 91.9458 74.2451 92.2375 75.4584 92.2375C75.4966 92.2375 75.5348 92.2375 75.5731 92.2361C75.6686 92.2348 75.7628 92.232 75.857 92.2279C77.3144 92.1526 78.7194 91.6555 79.9041 90.796C79.8604 90.7148 79.8168 90.6336 79.7717 90.5524C78.6203 91.3962 77.2498 91.8828 75.8283 91.9525Z" fill="white"/>
<path d="M76.0521 95.7923C75.9565 95.8006 75.861 95.8061 75.7654 95.8102C75.6631 95.8144 75.5607 95.8171 75.4583 95.8171C73.8628 95.8153 72.3108 95.2922 71.0348 94.3262C69.7587 93.3603 68.8271 92.0034 68.3795 90.4587C68.3181 90.5703 68.2567 90.6804 68.198 90.7919C68.7023 92.333 69.6752 93.6746 70.9785 94.6261C72.2819 95.5777 73.8494 96.0908 75.4583 96.0925C75.5607 96.0925 75.6631 96.0911 75.7641 96.0856C75.861 96.0828 75.9565 96.0773 76.0521 96.0704C77.982 95.9182 79.7825 95.0318 81.0889 93.5909C81.0602 93.489 81.0274 93.3885 80.9947 93.2866C79.7329 94.7383 77.96 95.6371 76.0521 95.7923Z" fill="white"/>
<path d="M17.9179 36.6989C27.8137 36.6989 35.8359 28.6075 35.8359 18.6262C35.8359 8.64489 27.8137 0.553467 17.9179 0.553467C8.02213 0.553467 0 8.64489 0 18.6262C0 28.6075 8.02213 36.6989 17.9179 36.6989Z" fill="#E4E4E4"/>
<path d="M17.9179 33.6867C26.1644 33.6867 32.8495 26.9439 32.8495 18.6261C32.8495 10.3084 26.1644 3.56555 17.9179 3.56555C9.67144 3.56555 2.98633 10.3084 2.98633 18.6261C2.98633 26.9439 9.67144 33.6867 17.9179 33.6867Z" fill="#6C63FF"/>
<path d="M65.5 36.6989C75.3958 36.6989 83.4179 28.6075 83.4179 18.6262C83.4179 8.64489 75.3958 0.553467 65.5 0.553467C55.6042 0.553467 47.582 8.64489 47.582 18.6262C47.582 28.6075 55.6042 36.6989 65.5 36.6989Z" fill="#E4E4E4"/>
<path d="M65.5 33.6867C73.7465 33.6867 80.4316 26.9439 80.4316 18.6261C80.4316 10.3084 73.7465 3.56555 65.5 3.56555C57.2535 3.56555 50.5684 10.3084 50.5684 18.6261C50.5684 26.9439 57.2535 33.6867 65.5 33.6867Z" fill="white"/>
<path d="M113.082 36.6989C122.978 36.6989 131 28.6075 131 18.6262C131 8.64489 122.978 0.553467 113.082 0.553467C103.186 0.553467 95.1642 8.64489 95.1642 18.6262C95.1642 28.6075 103.186 36.6989 113.082 36.6989Z" fill="#E4E4E4"/>
<path d="M113.082 33.6867C121.329 33.6867 128.014 26.9439 128.014 18.6261C128.014 10.3084 121.329 3.56555 113.082 3.56555C104.836 3.56555 98.1505 10.3084 98.1505 18.6261C98.1505 26.9439 104.836 33.6867 113.082 33.6867Z" fill="white"/>
<path d="M16.6491 24.0725C16.6224 24.0725 16.5957 24.0719 16.5689 24.0705C16.3328 24.0591 16.1019 23.9962 15.8921 23.8863C15.6823 23.7763 15.4986 23.6219 15.3535 23.4336L13.0631 20.4633C12.7964 20.1166 12.6769 19.6774 12.7308 19.242C12.7848 18.8066 13.0077 18.4106 13.3508 18.1408L13.4332 18.0761C13.7769 17.8071 14.2124 17.6866 14.6441 17.741C15.0758 17.7954 15.4685 18.0203 15.736 18.3663C15.8651 18.5337 16.0285 18.671 16.2151 18.7688C16.4017 18.8666 16.607 18.9226 16.817 18.9329C17.0271 18.9433 17.2368 18.9077 17.432 18.8287C17.6271 18.7496 17.803 18.629 17.9476 18.4751L22.5984 13.5233C22.7466 13.3655 22.9241 13.2387 23.1209 13.1501C23.3177 13.0615 23.5299 13.0129 23.7453 13.0071C23.9607 13.0012 24.1752 13.0382 24.3764 13.1159C24.5777 13.1937 24.7618 13.3106 24.9182 13.4601L24.9941 13.5327C25.31 13.8346 25.4941 14.2507 25.5058 14.6895C25.5176 15.1282 25.356 15.5537 25.0567 15.8724L17.84 23.5557C17.6868 23.719 17.5021 23.849 17.2974 23.9379C17.0926 24.0268 16.872 24.0726 16.6491 24.0725Z" fill="white"/>
<path d="M57.6359 14.9668H45.8423V4.62145C45.8544 3.98088 46.1179 3.37131 46.5749 2.92635C47.0319 2.48139 47.6452 2.23736 48.2803 2.24776H52.2005C55.1976 2.24776 57.6359 4.6217 57.6359 7.53968V14.9668Z" fill="#2F2E41"/>
<path d="M62.0021 101.536L59.7634 101.536L58.6981 92.8257L62.0025 92.8259L62.0021 101.536Z" fill="#FFB6B6"/>
<path d="M62.5731 103.725L55.354 103.725V103.633C55.3541 102.881 55.6501 102.16 56.1771 101.629C56.704 101.097 57.4187 100.799 58.1639 100.799L62.5733 100.799L62.5731 103.725Z" fill="#2F2E41"/>
<path d="M41.366 101.536L39.1271 101.536L38.062 92.8257L41.3664 92.8259L41.366 101.536Z" fill="#FFB6B6"/>
<path d="M41.937 103.725L34.7179 103.725V103.633C34.7179 102.881 35.014 102.16 35.541 101.629C36.0679 101.097 36.7826 100.799 37.5278 100.799L41.9372 100.799L41.937 103.725Z" fill="#2F2E41"/>
<path d="M44.0694 31.5593L42.6084 40.9535L56.4875 41.1376L54.6613 32.112L44.0694 31.5593Z" fill="#FFB6B6"/>
<path d="M43.0112 38.6597L38.5907 50.5317L38.0428 99.7315H41.7866L50.735 60.2022L58.9529 98.6996H62.6053L60.0487 55.413C60.0487 55.413 60.8026 46.7249 56.9441 41.5981L56.0049 38.8613L43.0112 38.6597Z" fill="#2F2E41"/>
<path d="M61.9724 47.9146C61.586 47.8084 61.2273 47.618 60.9217 47.3568C60.6161 47.0957 60.371 46.7701 60.2037 46.4031C60.0363 46.036 59.9508 45.6364 59.9531 45.2325C59.9554 44.8285 60.0455 44.4299 60.217 44.0648L54.3126 24.6487L58.6555 23.7804L64.0557 42.8122C64.6446 43.1436 65.0926 43.6813 65.3148 44.3235C65.5369 44.9657 65.5178 45.6678 65.261 46.2967C65.0042 46.9257 64.5276 47.4377 63.9215 47.7359C63.3154 48.0341 62.6219 48.0977 61.9724 47.9146Z" fill="#FFB6B6"/>
<path d="M54.1586 36.7474L44.5913 36.5611C44.3179 36.5552 44.0539 36.4591 43.8398 36.2875C43.6256 36.1158 43.4732 35.8781 43.4058 35.6107C42.8929 33.5625 41.7645 28.2247 42.363 22.9081C42.4811 21.8782 42.8029 20.8826 43.3092 19.9803C43.8154 19.078 44.496 18.2873 45.3106 17.6549C46.1252 17.0226 47.0573 16.5614 48.0517 16.2988C49.046 16.0361 50.0826 15.9773 51.0999 16.1258C52.173 16.2808 53.2016 16.6629 54.118 17.247C55.0345 17.8311 55.8182 18.6041 56.4176 19.5152C57.0171 20.4263 57.4188 21.4549 57.5964 22.5336C57.774 23.6123 57.7234 24.7167 57.4481 25.7743C56.2438 30.3872 55.5635 33.6873 55.4262 35.5832C55.4059 35.8573 55.2972 36.1172 55.1167 36.3231C54.9362 36.529 54.6938 36.6697 54.4265 36.7236C54.3471 36.7396 54.2662 36.7476 54.1852 36.7477C54.1763 36.7477 54.1675 36.7476 54.1586 36.7474Z" fill="#E4E4E4"/>
<path d="M25.0972 19.6925C25.1547 19.8225 25.2019 19.9569 25.2384 20.0944L37.2139 24.1989L39.5279 22.1599L43.0352 25.2802L39.2865 29.2914C38.9837 29.6154 38.5848 29.8316 38.1497 29.9076C37.7147 29.9835 37.267 29.915 36.8738 29.7124L24.0592 23.1103C23.5958 23.397 23.0569 23.5346 22.514 23.5048C21.9712 23.475 21.4502 23.2792 21.0203 22.9435C20.5905 22.6078 20.2722 22.148 20.1077 21.6254C19.9433 21.1027 19.9405 20.5419 20.0997 20.0176C20.2589 19.4934 20.5726 19.0304 20.9991 18.6903C21.4256 18.3502 21.9446 18.1492 22.4871 18.1139C23.0296 18.0786 23.5699 18.2107 24.0362 18.4927C24.5024 18.7747 24.8725 19.1932 25.0972 19.6925Z" fill="#FFB6B6"/>
<path d="M37.2388 23.5444C37.2397 23.3781 37.2762 23.2139 37.3458 23.0631C37.4154 22.9123 37.5164 22.7784 37.642 22.6705L42.0269 18.9031C42.5818 18.2617 43.3662 17.8685 44.2081 17.8097C45.0501 17.7509 45.8808 18.0313 46.5181 18.5894C47.1553 19.1474 47.5471 19.9377 47.6075 20.7868C47.6679 21.6358 47.392 22.4744 46.8402 23.1185L43.7176 28.023C43.6285 28.163 43.5105 28.2819 43.3717 28.3717C43.2329 28.4616 43.0765 28.5201 42.9133 28.5435C42.75 28.5669 42.5836 28.5545 42.4255 28.5072C42.2674 28.4598 42.1213 28.3787 41.997 28.2693L37.6315 24.4233C37.5072 24.314 37.4077 24.1788 37.34 24.0271C37.2722 23.8754 37.2377 23.7108 37.2388 23.5444Z" fill="#E4E4E4"/>
<path d="M54.0481 29.5669C53.9021 29.4895 53.7744 29.3812 53.6737 29.2495C53.573 29.1177 53.5017 28.9656 53.4646 28.8036L52.1682 23.1428C51.8594 22.3507 51.8747 21.4674 52.2106 20.6866C52.5466 19.9058 53.1758 19.2912 53.9603 18.9777C54.7448 18.6641 55.6206 18.6772 56.3956 19.014C57.1706 19.3507 57.7815 19.9838 58.0945 20.7742L60.9729 25.8284C61.055 25.9726 61.1054 26.1331 61.1205 26.2987C61.1356 26.4643 61.1152 26.6313 61.0606 26.7883C61.006 26.9452 60.9185 27.0885 60.804 27.2083C60.6896 27.328 60.5508 27.4215 60.3973 27.4823L55.0024 29.6201C54.8489 29.681 54.6842 29.7078 54.5195 29.6986C54.3548 29.6894 54.194 29.6445 54.0481 29.5669Z" fill="#E4E4E4"/>
<path d="M58.6892 3.25869C59.1322 2.2127 58.3704 0.881825 56.9877 0.286081C55.605 -0.309662 54.125 0.0553248 53.682 1.10131C53.239 2.1473 54.0008 3.47818 55.3835 4.07393C56.7662 4.66967 58.2462 4.30467 58.6892 3.25869Z" fill="#2F2E41"/>
<path d="M54.3999 11.0336C55.8791 8.30428 54.8846 4.88228 52.1787 3.39031C49.4728 1.89835 46.0801 2.9014 44.6009 5.63069C43.1217 8.35998 44.1162 11.782 46.8221 13.2739C49.528 14.7659 52.9207 13.7629 54.3999 11.0336Z" fill="#FFB6B6"/>
<path d="M52.5634 1.88175H46.1766C45.7083 1.87564 45.2551 2.0483 44.9078 2.36512C44.5605 2.68194 44.3448 3.11948 44.3039 3.59C44.2874 3.84004 44.322 4.09083 44.4055 4.32685C44.489 4.56286 44.6197 4.77907 44.7894 4.96206C44.9592 5.14506 45.1643 5.29094 45.3923 5.39068C45.6202 5.49043 45.866 5.5419 46.1144 5.5419C46.5956 5.5419 47.0571 5.73471 47.3974 6.07792C47.7377 6.42112 47.9288 6.88661 47.9288 7.37198V14.8753H57.9081V7.27255C57.9081 6.56462 57.7698 5.86362 57.5012 5.20958C57.2326 4.55553 56.8389 3.96126 56.3426 3.46068C55.8464 2.96009 55.2572 2.56301 54.6087 2.2921C53.9603 2.02118 53.2653 1.88175 52.5634 1.88175Z" fill="#2F2E41"/>
<path d="M84.0477 104H14.9189C14.8707 104 14.8246 103.981 14.7906 103.946C14.7565 103.912 14.7374 103.866 14.7374 103.817C14.7374 103.769 14.7565 103.722 14.7906 103.688C14.8246 103.653 14.8707 103.634 14.9189 103.634H84.0477C84.0958 103.634 84.1419 103.653 84.176 103.688C84.21 103.722 84.2291 103.769 84.2291 103.817C84.2291 103.866 84.21 103.912 84.176 103.946C84.1419 103.981 84.0958 104 84.0477 104Z" fill="#CACACA"/>
</g>
<defs>
<clipPath id="clip0_1143_4744">
<rect width="131" height="104" fill="white"/>
</clipPath>
</defs>
</svg>
